<?xml version="1.0" encoding="UTF-8" standalone="no"?>
<svg
   viewBox="0 0 576 512"
   version="1.1"
   id="svg4"
   sodipodi:docname="jamendo.svg"
   inkscape:version="1.2.2 (b0a8486541, 2022-12-01)"
   xmlns:inkscape="http://www.inkscape.org/namespaces/inkscape"
   xmlns:sodipodi="http://sodipodi.sourceforge.net/DTD/sodipodi-0.dtd"
   xmlns="http://www.w3.org/2000/svg"
   xmlns:svg="http://www.w3.org/2000/svg">
  <defs
     id="defs8" />
  <sodipodi:namedview
     id="namedview6"
     pagecolor="#ffffff"
     bordercolor="#666666"
     borderopacity="1.0"
     inkscape:showpageshadow="2"
     inkscape:pageopacity="0.0"
     inkscape:pagecheckerboard="0"
     inkscape:deskcolor="#d1d1d1"
     showgrid="false"
     inkscape:zoom="1.5273438"
     inkscape:cx="288.08184"
     inkscape:cy="256"
     inkscape:window-width="1920"
     inkscape:window-height="1011"
     inkscape:window-x="0"
     inkscape:window-y="0"
     inkscape:window-maximized="1"
     inkscape:current-layer="svg4" />
  <path
     fill="currentColor"
     d="M 289.17136,4.1286 C 149.84087,4.1286 36.129,117.84484 36.129,257.17096 c 0,139.32611 113.71624,253.04235 253.04236,253.04235 139.33048,0 253.04235,-113.71624 253.04235,-253.04235 C 542.21371,117.84047 428.49747,4.1286 289.17136,4.1286 Z m 0,68.005871 c 102.54444,0 185.03648,82.492039 185.03648,185.036489 0,102.54444 -82.49204,185.03648 -185.03648,185.03648 -102.54445,0 -185.03649,-82.49204 -185.03649,-185.03648 0,-102.54445 82.49204,-185.036489 185.03649,-185.036489 z m -51.0055,87.774049 c -1.69164,0.32278 -2.79802,1.83655 -2.76768,3.55845 v 196.50562 c -0.0114,1.26969 0.4847,2.52329 1.58154,3.16304 1.09681,0.6397 2.45872,0.63616 3.55845,0 l 170.80392,-98.45176 c 1.12619,-0.62326 1.58154,-1.48058 1.58154,-2.76768 0,-1.28709 -0.45548,-2.53973 -1.58154,-3.16304 L 240.53817,160.3014 c -0.7313,-0.43511 -1.53462,-0.54517 -2.37227,-0.39541 z"
     id="path2"
     style="stroke-width:4.37252" />
</svg>
